<?xml version="1.0" encoding="UTF-8" standalone="no"?>
<!-- Created with Inkscape (http://www.inkscape.org/) -->
<svg xmlns:dc="http://purl.org/dc/elements/1.1/" xmlns:cc="http://web.resource.org/cc/" xmlns:rdf="http://www.w3.org/1999/02/22-rdf-syntax-ns#" xmlns:svg="http://www.w3.org/2000/svg" xmlns="http://www.w3.org/2000/svg" xmlns:sodipodi="http://sodipodi.sourceforge.net/DTD/sodipodi-0.dtd" xmlns:inkscape="http://www.inkscape.org/namespaces/inkscape" id="svg1890" sodipodi:version="0.32" inkscape:version="0.44.1" width="260" height="300" version="1.0" sodipodi:docbase="E:\Imágenes\Graphics\South Park" sodipodi:docname="kyle.svg">
  <metadata id="metadata1895">
    <rdf:RDF>
      <cc:Work rdf:about="">
        <dc:format>image/svg+xml</dc:format>
        <dc:type rdf:resource="http://purl.org/dc/dcmitype/StillImage"/>
      </cc:Work>
    </rdf:RDF>
  </metadata>
  <defs id="defs1893"/>
  <sodipodi:namedview inkscape:window-height="712" inkscape:window-width="1024" inkscape:pageshadow="2" inkscape:pageopacity="0.0" guidetolerance="10.0" gridtolerance="10.0" objecttolerance="10.0" borderopacity="1.0" bordercolor="#666666" pagecolor="#ffffff" id="base" inkscape:zoom="1" inkscape:cx="131.33816" inkscape:cy="118.13524" inkscape:window-x="-4" inkscape:window-y="-4" inkscape:current-layer="svg1890" width="260px" height="300px"/>
  <path style="fill: none; fill-rule: evenodd; stroke: none; stroke-width: 1px; stroke-linecap: butt; stroke-linejoin: miter; stroke-opacity: 1;" d="M 180.79051,256.76401 C 180.79051,318.44548 180.79051,317.7365 180.79051,317.7365" id="path8152"/>
  <path style="fill: rgb(37, 105, 83); fill-opacity: 1; fill-rule: evenodd; stroke: none; stroke-width: 1px; stroke-linecap: butt; stroke-linejoin: miter; stroke-opacity: 1;" d="M 65.55836,267.56897 L 65.30769,288.37401 L 184.62334,290.88064 L 194.14854,288.62467 L 193.89788,266.56631 L 65.55836,267.56897 z " id="path6368"/>
  <path style="fill: rgb(255, 117, 15); fill-opacity: 1; fill-rule: evenodd; stroke: none; stroke-width: 1px; stroke-linecap: butt; stroke-linejoin: miter; stroke-opacity: 1;" d="M 46.257295,242.25199 C 46.257295,242.25199 57.28647,195.37798 69.3183,185.60212 C 81.35013,175.82626 176.85279,180.08753 180.61273,181.84217 C 184.37268,183.59682 190.88992,187.1061 190.88992,187.1061 C 190.88992,187.1061 215.20424,227.71353 211.94562,244.25729 C 208.687,260.80106 194.14854,267.06764 194.14854,267.06764 C 194.14854,267.06764 156.54907,276.59284 129.97878,275.59019 C 103.40849,274.58753 36.230769,271.32891 46.257295,242.25199 z " id="path6362"/>
  <path style="fill: rgb(2, 168, 2); fill-opacity: 1; fill-rule: evenodd; stroke: none; stroke-width: 1px; stroke-linecap: butt; stroke-linejoin: miter; stroke-opacity: 1;" d="M 128.97613,214.42838 C 128.97613,214.42838 128.22414,206.90849 124.21353,206.40716 C 120.20292,205.90584 70.32096,186.60477 70.32096,186.60477 C 70.32096,186.60477 73.83024,216.93501 128.97613,214.42838 z " id="path6364"/>
  <path style="fill: rgb(2, 168, 2); fill-opacity: 1; fill-rule: evenodd; stroke: none; stroke-width: 1px; stroke-linecap: butt; stroke-linejoin: miter; stroke-opacity: 1;" d="M 129.72812,214.4801 C 129.72812,214.4801 130.48011,206.96021 134.49072,206.45888 C 138.50133,205.95756 188.38329,186.65649 188.38329,186.65649 C 188.38329,186.65649 184.87401,216.98673 129.72812,214.4801 z " id="path6366"/>
  <path sodipodi:type="arc" style="fill: rgb(255, 225, 196); fill-opacity: 1; stroke: none; stroke-width: 0.9; stroke-miterlimit: 4; stroke-dasharray: none; stroke-opacity: 1;" id="path6358" sodipodi:cx="164.93634" sodipodi:cy="179.72546" sodipodi:rx="80.713531" sodipodi:ry="68.932358" d="M 245.64987 179.72546 A 80.713531 68.932358 0 1 1  84.222809,179.72546 A 80.713531 68.932358 0 1 1  245.64987 179.72546 z" transform="matrix(1.11724, 0, 0, 1.1591, -54.2952, -81.122)"/>
  <path style="fill: rgb(51, 204, 0); fill-opacity: 1; fill-rule: evenodd; stroke: none; stroke-width: 1px; stroke-linecap: butt; stroke-linejoin: miter; stroke-opacity: 1;" d="M 38.331782,84.31125 L 38.331782,23.338763 C 38.331782,23.338763 36.559326,10.931571 49.32101,10.931571 C 62.08269,10.931571 209.90552,10.931571 209.90552,10.931571 C 209.90552,10.931571 223.0217,10.57708 222.66721,25.820202 C 222.31271,41.063323 222.66721,89.27413 222.66721,89.27413 L 38.331782,84.31125 z " id="path6378"/>
  <path sodipodi:type="arc" style="fill: white; fill-opacity: 1; stroke: none; stroke-width: 0.394897; stroke-miterlimit: 4; stroke-dasharray: none; stroke-opacity: 1;" id="path1901" sodipodi:cx="154.53381" sodipodi:cy="166.06432" sodipodi:rx="24.439655" sodipodi:ry="27.447613" d="M 178.97347 166.06432 A 24.439655 27.447613 0 1 1  130.09416,166.06432 A 24.439655 27.447613 0 1 1  178.97347 166.06432 z" transform="matrix(1.05125, -0.52926, 0.244855, 0.983718, -98.9552, 40.9883)"/>
  <path sodipodi:type="arc" style="fill: white; fill-opacity: 1; stroke: none; stroke-width: 0.395; stroke-miterlimit: 4; stroke-dasharray: none; stroke-opacity: 1;" id="path3675" sodipodi:cx="154.53381" sodipodi:cy="166.06432" sodipodi:rx="24.439655" sodipodi:ry="27.447613" d="M 178.97347 166.06432 A 24.439655 27.447613 0 1 1  130.09416,166.06432 A 24.439655 27.447613 0 1 1  178.97347 166.06432 z" transform="matrix(-1.05125, -0.52926, -0.244855, 0.983718, 360.417, 41.8658)"/>
  <path sodipodi:type="arc" style="fill: black; fill-opacity: 1; stroke: none; stroke-width: 0.395; stroke-miterlimit: 4; stroke-dasharray: none; stroke-opacity: 1;" id="path3677" sodipodi:cx="121.07029" sodipodi:cy="165.06168" sodipodi:rx="2.7572944" sodipodi:ry="3.1332891" d="M 123.82758 165.06168 A 2.7572944 3.1332891 0 1 1  118.313,165.06168 A 2.7572944 3.1332891 0 1 1  123.82758 165.06168 z" transform="matrix(1.2157, 0, 0, 1.10982, -1.79071, -57.9959)"/>
  <path sodipodi:type="arc" style="fill: black; fill-opacity: 1; stroke: none; stroke-width: 0.395; stroke-miterlimit: 4; stroke-dasharray: none; stroke-opacity: 1;" id="path3679" sodipodi:cx="121.07029" sodipodi:cy="165.06168" sodipodi:rx="2.7572944" sodipodi:ry="3.1332891" d="M 123.82758 165.06168 A 2.7572944 3.1332891 0 1 1  118.313,165.06168 A 2.7572944 3.1332891 0 1 1  123.82758 165.06168 z" transform="matrix(1.2157, 0, 0, 1.10982, -33.4996, -58.2466)"/>
  <path style="fill: none; fill-rule: evenodd; stroke: black; stroke-width: 0.9; stroke-linecap: butt; stroke-linejoin: miter; stroke-miterlimit: 4; stroke-dasharray: none; stroke-opacity: 1;" d="M 88.96244,222.70965 L 116.61276,222.70965 L 116.61276,262.76716 L 88.25346,262.76716 L 88.96244,222.70965 z " id="path3681"/>
  <path style="fill: none; fill-rule: evenodd; stroke: black; stroke-width: 0.9; stroke-linecap: butt; stroke-linejoin: miter; stroke-miterlimit: 4; stroke-dasharray: none; stroke-opacity: 1;" d="M 88.963377,222.7106 L 102.43311,237.24379 L 116.26014,222.71247 L 88.963377,222.7106 z " id="path3683" sodipodi:nodetypes="cccc"/>
  <path style="fill: none; fill-rule: evenodd; stroke: black; stroke-width: 0.9; stroke-linecap: butt; stroke-linejoin: miter; stroke-miterlimit: 4; stroke-dasharray: none; stroke-opacity: 1;" d="M 140.89585,222.72456 L 168.54617,222.72456 L 168.54617,262.78207 L 140.18687,262.78207 L 140.89585,222.72456 z " id="path5461"/>
  <path style="fill: none; fill-rule: evenodd; stroke: black; stroke-width: 0.9; stroke-linecap: butt; stroke-linejoin: miter; stroke-miterlimit: 4; stroke-dasharray: none; stroke-opacity: 1;" d="M 141.25034,222.82906 L 154.36652,237.2587 L 168.00421,222.80948 L 141.25034,222.82906 z " id="path5463" sodipodi:nodetypes="cccc"/>
  <path sodipodi:type="arc" style="fill: rgb(51, 204, 0); fill-opacity: 1; stroke: none; stroke-width: 0.9; stroke-miterlimit: 4; stroke-dasharray: none; stroke-opacity: 1;" id="path5469" sodipodi:cx="102.77188" sodipodi:cy="295.03052" sodipodi:rx="14.538462" sodipodi:ry="14.538462" d="M 117.31034 295.03052 A 14.538462 14.538462 0 1 1  88.233419,295.03052 A 14.538462 14.538462 0 1 1  117.31034 295.03052 z" transform="translate(-45, -42)"/>
  <path sodipodi:type="arc" style="fill: rgb(51, 204, 0); fill-opacity: 1; stroke: none; stroke-width: 0.9; stroke-miterlimit: 4; stroke-dasharray: none; stroke-opacity: 1;" id="path6356" sodipodi:cx="102.77188" sodipodi:cy="295.03052" sodipodi:rx="14.538462" sodipodi:ry="14.538462" d="M 117.31034 295.03052 A 14.538462 14.538462 0 1 1  88.233419,295.03052 A 14.538462 14.538462 0 1 1  117.31034 295.03052 z" transform="translate(99.1472, -42.5013)"/>
  <path style="fill: black; fill-rule: evenodd; stroke: none; stroke-width: 1px; stroke-linecap: butt; stroke-linejoin: miter; stroke-opacity: 1;" d="M 201.16711,291.38196 L 52.27321,291.88329 C 52.27321,291.88329 77.08886,276.8435 128.22414,288.87533 C 128.22414,288.87533 161.813,277.84615 201.16711,291.38196 z " id="path6372" sodipodi:nodetypes="ccs"/>
  <path style="fill: rgb(51, 204, 0); fill-opacity: 1; fill-rule: evenodd; stroke: none; stroke-width: 1px; stroke-linecap: butt; stroke-linejoin: miter; stroke-opacity: 1;" d="M 37.228117,83.8382 C 37.228117,83.8382 -8.260157,131.34432 12.66313,165.05305 C 29.809448,192.67685 62.9332,117.19823 56.55236,97.70121 C 50.17152,78.20419 36.346365,84.58504 37.228117,83.8382 z " id="path6374" sodipodi:nodetypes="cssc"/>
  <path style="fill: rgb(51, 204, 0); fill-opacity: 1; fill-rule: evenodd; stroke: none; stroke-width: 1px; stroke-linecap: butt; stroke-linejoin: miter; stroke-opacity: 1;" d="M 223.15575,85.93302 C 223.15575,85.93302 267.35906,133.43914 247.02682,167.14787 C 230.36485,194.77167 198.17679,119.29305 204.37738,99.79603 C 210.57797,80.29901 224.01259,86.67986 223.15575,85.93302 z " id="path6376" sodipodi:nodetypes="cssc"/>
  <path style="fill: none; fill-rule: evenodd; stroke: black; stroke-width: 2; stroke-linecap: butt; stroke-linejoin: miter; stroke-opacity: 1; stroke-miterlimit: 4; stroke-dasharray: none;" d="M 221.67798,85.393092 C 221.67798,85.393092 127.27922,43.673792 37.476659,83.625325" id="path14403" sodipodi:nodetypes="cs"/>
  <path style="fill: rgb(2, 168, 2); fill-opacity: 1; fill-rule: evenodd; stroke: none; stroke-width: 1px; stroke-linecap: butt; stroke-linejoin: miter; stroke-opacity: 1;" d="M 47.761273,45.732095 L 46.758621,98.37135 C 46.758621,98.37135 45.254642,100.37666 51.27056,99.87533 C 57.28647,99.37401 97.47416,91.97638 134.74138,91.85411 C 161.87597,91.76509 207.18303,95.86472 208.687,99.374 C 210.19098,102.88328 214.20159,88.34483 213.19894,81.82759 C 212.19629,75.31034 212.19629,46.233422 212.19629,46.233422 C 212.19629,46.233422 49.26525,45.732095 47.761273,45.732095 z " id="path1899" sodipodi:nodetypes="ccsssscc"/>
  <path style="fill: none; fill-rule: evenodd; stroke: black; stroke-width: 1.4; stroke-linecap: butt; stroke-linejoin: miter; stroke-miterlimit: 4; stroke-dasharray: none; stroke-opacity: 1;" d="M 115.96535,181.44184 C 115.96535,181.44184 125.53662,190.30412 142.1977,181.08735" id="path6380" sodipodi:nodetypes="cs"/>
  <path sodipodi:type="arc" style="fill: rgb(51, 204, 0); fill-opacity: 1; stroke: black; stroke-width: 0.9; stroke-miterlimit: 4; stroke-dasharray: none; stroke-opacity: 1;" id="path5467" sodipodi:cx="100.13992" sodipodi:cy="288.63858" sodipodi:rx="6.8932362" sodipodi:ry="6.8932362" d="M 107.03316 288.63858 A 6.8932362 6.8932362 0 1 1  93.246687,288.63858 A 6.8932362 6.8932362 0 1 1  107.03316 288.63858 z" transform="matrix(1.0512, 0, 0, 1.0512, 84.8705, -54.1472)"/>
  <path sodipodi:type="arc" style="fill: rgb(51, 204, 0); fill-opacity: 1; stroke: black; stroke-width: 0.9; stroke-miterlimit: 4; stroke-dasharray: none; stroke-opacity: 1;" id="path5465" sodipodi:cx="100.13992" sodipodi:cy="288.63858" sodipodi:rx="6.8932362" sodipodi:ry="6.8932362" d="M 107.03316 288.63858 A 6.8932362 6.8932362 0 1 1  93.246687,288.63858 A 6.8932362 6.8932362 0 1 1  107.03316 288.63858 z" transform="matrix(1.0512, 0, 0, 1.0512, -35.9491, -54.1472)"/>
  <path style="fill: none; fill-rule: evenodd; stroke: black; stroke-width: 1px; stroke-linecap: butt; stroke-linejoin: miter; stroke-opacity: 1;" d="M 69.81963,241.75066 C 69.81963,241.75066 73.32891,225.70823 77.33952,222.70027" id="path11694" sodipodi:nodetypes="cs"/>
  <path style="fill: none; fill-rule: evenodd; stroke: black; stroke-width: 1px; stroke-linecap: butt; stroke-linejoin: miter; stroke-opacity: 1;" d="M 189.38593,241.75066 C 189.38593,241.75066 185.87665,225.70823 181.86604,222.70027" id="path11696" sodipodi:nodetypes="cs"/>
  <path style="fill: none; fill-rule: evenodd; stroke: black; stroke-width: 1.91633; stroke-linecap: butt; stroke-linejoin: miter; stroke-miterlimit: 4; stroke-dasharray: none; stroke-opacity: 1;" d="M 129.79051,214.78041 L 129.79051,275.36279" id="path12583"/>
</svg>