<svg xmlns="http://www.w3.org/2000/svg" xmlns:xlink="http://www.w3.org/1999/xlink" width="69.86" height="64.11" viewBox="0 0 69.86 64.11"><defs><path id="a66aa" d="M326.24 295.11l19.7-2.11 19.68 2.11 15.24 20.75-34.93 41.25L311 315.86z"/><path id="a66ab" d="M325.15 315.86l20.78 41.25L311 315.86z"/><path id="a66ac" d="M366.71 315.86l-20.78 41.25 34.93-41.25z"/><path id="a66ad" d="M325.15 315.86h41.57l-20.79 41.25z"/><path id="a66ae" d="M345.93 293l-19.69 2.11-1.09 20.75z"/><path id="a66af" d="M345.93 293l19.69 2.11 1.1 20.75z"/><path id="a66ag" d="M380.86 315.86l-15.24-20.75 1.1 20.75z"/><path id="a66ah" d="M311 315.86l15.24-20.75-1.1 20.75z"/><path id="a66ai" d="M345.93 293l-20.78 22.86h41.57z"/></defs><g><g clip-path="url(#clip-58947668-D6BC-4813-BA98-31B3BB976A5A)" transform="translate(-311 -293)"><g><use fill="#fdb300" xlink:href="#a66aa"/></g><g><g><use fill="#ea6c00" xlink:href="#a66ab"/></g><g><use fill="#ea6c00" xlink:href="#a66ac"/></g><g><use fill="#fdad00" xlink:href="#a66ad"/></g></g><g><g><use fill="#fdd230" xlink:href="#a66ae"/></g><g><use fill="#fdd230" xlink:href="#a66af"/></g><g><use fill="#fdad00" xlink:href="#a66ag"/></g><g><use fill="#fdad00" xlink:href="#a66ah"/></g><g><use fill="#feeeb7" xlink:href="#a66ai"/></g></g></g></g></svg>